# xmcd
#
# Track frame offsets:
#	150
#	22716
#	36134
#	39339
#	51579
#	64522
#	71339
#	80771
#	87668
#	91616
#	94717
#	101790
#	106788
#	110730
#	112483
#	114452
#	116077
#	117507
#	119618
#	121399
#	122478
#	132346
#	134119
#	137011
#	140155
#	142638
#	146981
#	150769
#	154101
#	157128
#	159916
#	163129
#	165231
#	171766
#	178733
#	187400
#	196759
#	204229
#	212468
#	220502
#	228226
#	236060
#	240450
#	255491
#	267214
#	277518
#	286883
#	296854
#	299622
#	307625
#	310524
#	312326
#	313718
#
# Disc length: 4411 seconds
#
# Revision: 1
# Processed by: cddbd v1.5.1PL0 Copyright (c) Steve Scherf et al.
# Submitted via: CDex 1.50Beta5
#
DISCID=01113935
DTITLE=宝島社 - 耳からメキメキ鍛える英会話 [659]
DYEAR=1900
DGENRE=Unclassifiable
TTITLE0=トラック００１
TTITLE1=トラック００２
TTITLE2=トラック００３
TTITLE3=トラック００４
TTITLE4=トラック００５
TTITLE5=トラック００６
TTITLE6=トラック００７
TTITLE7=トラック００８
TTITLE8=トラック００９
TTITLE9=トラック０１０
TTITLE10=トラック０１１
TTITLE11=トラック０１２
TTITLE12=トラック０１３
TTITLE13=トラック０１４
TTITLE14=トラック０１５
TTITLE15=トラック０１６
TTITLE16=トラック０１７
TTITLE17=トラック０１８
TTITLE18=トラック０１９
TTITLE19=トラック０２０
TTITLE20=トラック０２１
TTITLE21=トラック０２２
TTITLE22=トラック０２３
TTITLE23=トラック０２４
TTITLE24=トラック０２５
TTITLE25=トラック０２６
TTITLE26=トラック０２７
TTITLE27=トラック０２８
TTITLE28=トラック０２９
TTITLE29=トラック０３０
TTITLE30=トラック０３１
TTITLE31=トラック０３２
TTITLE32=トラック０３３
TTITLE33=トラック０３４
TTITLE34=トラック０３５
TTITLE35=トラック０３６
TTITLE36=トラック０３７
TTITLE37=トラック０３８
TTITLE38=トラック０３９
TTITLE39=トラック０４０
TTITLE40=トラック０４１
TTITLE41=トラック０４２
TTITLE42=トラック０４３
TTITLE43=トラック０４４
TTITLE44=トラック０４５
TTITLE45=トラック０４６
TTITLE46=トラック０４７
TTITLE47=トラック０４８
TTITLE48=トラック０４９
TTITLE49=トラック０５０
TTITLE50=トラック０５１
TTITLE51=トラック０５２
TTITLE52=トラック０５３
EXTD=
EXTT0=
EXTT1=
EXTT2=
EXTT3=
EXTT4=
EXTT5=
EXTT6=
EXTT7=
EXTT8=
EXTT9=
EXTT10=
EXTT11=
EXTT12=
EXTT13=
EXTT14=
EXTT15=
EXTT16=
EXTT17=
EXTT18=
EXTT19=
EXTT20=
EXTT21=
EXTT22=
EXTT23=
EXTT24=
EXTT25=
EXTT26=
EXTT27=
EXTT28=
EXTT29=
EXTT30=
EXTT31=
EXTT32=
EXTT33=
EXTT34=
EXTT35=
EXTT36=
EXTT37=
EXTT38=
EXTT39=
EXTT40=
EXTT41=
EXTT42=
EXTT43=
EXTT44=
EXTT45=
EXTT46=
EXTT47=
EXTT48=
EXTT49=
EXTT50=
EXTT51=
EXTT52=
PLAYORDER=
